<svg width="45" height="45" viewBox="0 0 45 45"  xmlns="http://www.w3.org/2000/svg">
<path d="M6.5625 7.03125C6.5625 6.90693 6.61189 6.7877 6.69979 6.69979C6.7877 6.61189 6.90693 6.5625 7.03125 6.5625H32.3438C32.4681 6.5625 32.5873 6.61189 32.6752 6.69979C32.7631 6.7877 32.8125 6.90693 32.8125 7.03125V25.7812C32.8125 26.1542 32.9607 26.5119 33.2244 26.7756C33.4881 27.0393 33.8458 27.1875 34.2188 27.1875C34.5917 27.1875 34.9494 27.0393 35.2131 26.7756C35.4768 26.5119 35.625 26.1542 35.625 25.7812V7.03125C35.625 6.16101 35.2793 5.32641 34.6639 4.71106C34.0486 4.0957 33.214 3.75 32.3438 3.75H7.03125C6.16101 3.75 5.32641 4.0957 4.71106 4.71106C4.0957 5.32641 3.75 6.16101 3.75 7.03125V37.9688C3.75 39.78 5.22 41.25 7.03125 41.25H20.1562C20.5292 41.25 20.8869 41.1018 21.1506 40.8381C21.4143 40.5744 21.5625 40.2167 21.5625 39.8438C21.5625 39.4708 21.4143 39.1131 21.1506 38.8494C20.8869 38.5857 20.5292 38.4375 20.1562 38.4375H7.03125C6.90693 38.4375 6.7877 38.3881 6.69979 38.3002C6.61189 38.2123 6.5625 38.0931 6.5625 37.9688V7.03125Z" fill="#0068E2"/>
<path d="M11.7188 13.125C11.3458 13.125 10.9881 13.2732 10.7244 13.5369C10.4607 13.8006 10.3125 14.1583 10.3125 14.5312C10.3125 14.9042 10.4607 15.2619 10.7244 15.5256C10.9881 15.7893 11.3458 15.9375 11.7188 15.9375H27.6562C28.0292 15.9375 28.3869 15.7893 28.6506 15.5256C28.9143 15.2619 29.0625 14.9042 29.0625 14.5312C29.0625 14.1583 28.9143 13.8006 28.6506 13.5369C28.3869 13.2732 28.0292 13.125 27.6562 13.125H11.7188ZM10.3125 22.0312C10.3125 21.6583 10.4607 21.3006 10.7244 21.0369C10.9881 20.7732 11.3458 20.625 11.7188 20.625H20.1562C20.5292 20.625 20.8869 20.7732 21.1506 21.0369C21.4143 21.3006 21.5625 21.6583 21.5625 22.0312C21.5625 22.4042 21.4143 22.7619 21.1506 23.0256C20.8869 23.2893 20.5292 23.4375 20.1562 23.4375H11.7188C11.3458 23.4375 10.9881 23.2893 10.7244 23.0256C10.4607 22.7619 10.3125 22.4042 10.3125 22.0312ZM40.8375 30.525C40.9757 30.3963 41.0865 30.241 41.1633 30.0685C41.2402 29.896 41.2815 29.7098 41.2849 29.521C41.2882 29.3322 41.2535 29.1446 41.1827 28.9695C41.112 28.7944 41.0067 28.6353 40.8732 28.5018C40.7397 28.3683 40.5806 28.263 40.4055 28.1923C40.2304 28.1215 40.0428 28.0868 39.854 28.0901C39.6652 28.0935 39.479 28.1348 39.3065 28.2117C39.134 28.2885 38.9787 28.3993 38.85 28.5375L29.5312 37.8563L25.8375 34.1625C25.7088 34.0243 25.5535 33.9135 25.381 33.8367C25.2085 33.7598 25.0223 33.7185 24.8335 33.7151C24.6447 33.7118 24.4571 33.7465 24.282 33.8173C24.1069 33.888 23.9478 33.9933 23.8143 34.1268C23.6808 34.2603 23.5755 34.4194 23.5048 34.5945C23.434 34.7696 23.3993 34.9572 23.4026 35.146C23.406 35.3348 23.4473 35.521 23.5242 35.6935C23.601 35.866 23.7118 36.0213 23.85 36.15L28.5375 40.8375C28.8012 41.1008 29.1586 41.2488 29.5312 41.2488C29.9039 41.2488 30.2613 41.1008 30.525 40.8375L40.8375 30.525Z" fill="#0068E2"/>
</svg>
