<svg class="icon" width="45" height="45" viewBox="0 0 45 45" fill="none" xmlns="http://www.w3.org/2000/svg">
<path d="M6.5625 7.03125C6.5625 6.90693 6.61189 6.7877 6.69979 6.69979C6.7877 6.61189 6.90693 6.5625 7.03125 6.5625H32.3438C32.4681 6.5625 32.5873 6.61189 32.6752 6.69979C32.7631 6.7877 32.8125 6.90693 32.8125 7.03125V25.7812C32.8125 26.1542 32.9607 26.5119 33.2244 26.7756C33.4881 27.0393 33.8458 27.1875 34.2188 27.1875C34.5917 27.1875 34.9494 27.0393 35.2131 26.7756C35.4768 26.5119 35.625 26.1542 35.625 25.7812V7.03125C35.625 6.16101 35.2793 5.32641 34.6639 4.71106C34.0486 4.0957 33.214 3.75 32.3438 3.75H7.03125C6.16101 3.75 5.32641 4.0957 4.71106 4.71106C4.0957 5.32641 3.75 6.16101 3.75 7.03125V37.9688C3.75 39.78 5.22 41.25 7.03125 41.25H20.1562C20.5292 41.25 20.8869 41.1018 21.1506 40.8381C21.4143 40.5744 21.5625 40.2167 21.5625 39.8438C21.5625 39.4708 21.4143 39.1131 21.1506 38.8494C20.8869 38.5857 20.5292 38.4375 20.1562 38.4375H7.03125C6.90693 38.4375 6.7877 38.3881 6.69979 38.3002C6.61189 38.2123 6.5625 38.0931 6.5625 37.9688V7.03125Z" fill="#0068E2"/>
<path d="M12.4062 13C12.0333 13 11.6756 13.1482 11.4119 13.4119C11.1482 13.6756 11 14.0333 11 14.4062C11 14.7792 11.1482 15.1369 11.4119 15.4006C11.6756 15.6643 12.0333 15.8125 12.4062 15.8125H28.3438C28.7167 15.8125 29.0744 15.6643 29.3381 15.4006C29.6018 15.1369 29.75 14.7792 29.75 14.4062C29.75 14.0333 29.6018 13.6756 29.3381 13.4119C29.0744 13.1482 28.7167 13 28.3438 13H12.4062ZM11 21.9062C11 21.5333 11.1482 21.1756 11.4119 20.9119C11.6756 20.6482 12.0333 20.5 12.4062 20.5H20.8438C21.2167 20.5 21.5744 20.6482 21.8381 20.9119C22.1018 21.1756 22.25 21.5333 22.25 21.9062C22.25 22.2792 22.1018 22.6369 21.8381 22.9006C21.5744 23.1643 21.2167 23.3125 20.8438 23.3125H12.4062C12.0333 23.3125 11.6756 23.1643 11.4119 22.9006C11.1482 22.6369 11 22.2792 11 21.9062ZM41.525 30.4C41.6632 30.2713 41.774 30.116 41.8508 29.9435C41.9277 29.771 41.969 29.5848 41.9724 29.396C41.9757 29.2072 41.941 29.0196 41.8702 28.8445C41.7995 28.6694 41.6942 28.5103 41.5607 28.3768C41.4272 28.2433 41.2681 28.138 41.093 28.0673C40.9179 27.9965 40.7303 27.9618 40.5415 27.9651C40.3527 27.9685 40.1665 28.0098 39.994 28.0867C39.8215 28.1635 39.6662 28.2743 39.5375 28.4125L30.2188 37.7313L26.525 34.0375C26.3963 33.8993 26.241 33.7885 26.0685 33.7117C25.896 33.6348 25.7098 33.5935 25.521 33.5901C25.3322 33.5868 25.1446 33.6215 24.9695 33.6923C24.7944 33.763 24.6353 33.8683 24.5018 34.0018C24.3683 34.1353 24.263 34.2944 24.1923 34.4695C24.1215 34.6446 24.0868 34.8322 24.0901 35.021C24.0935 35.2098 24.1348 35.396 24.2117 35.5685C24.2885 35.741 24.3993 35.8963 24.5375 36.025L29.225 40.7125C29.4887 40.9758 29.8461 41.1238 30.2188 41.1238C30.5914 41.1238 30.9488 40.9758 31.2125 40.7125L41.525 30.4Z" fill="#0068E2"/>
</svg>
