<svg width="337px" height="33px" viewBox="0 0 337 33" version="1.1" xmlns="http://www.w3.org/2000/svg" xmlns:xlink="http://www.w3.org/1999/xlink">
    <title>Group</title>
    <desc>Created with Sketch.</desc>
    <defs></defs>
    <g id="Symbols" stroke="none" stroke-width="1" fill="none" fill-rule="evenodd">
        <g id="Header-/-Screen-XL-(1280+)-/-Default" transform="translate(-120.000000, -65.000000)">
            <g id="Logo-&amp;-Controls" transform="translate(120.000000, 60.000000)">
                <g id="Group" transform="translate(0.000000, 5.000000)">
                    <g id="Logo-/-Default">
                        <g id="detmir_txt_logo" stroke-width="1" transform="translate(122.000000, 0.000000)" fill="#0073E6">
                            <path d="M5.39655172,27.552381 C5.39655172,27.9714286 5.25862069,28.3206349 4.98275862,28.6 C4.70689655,28.8793651 4.36206897,29.0190476 3.94827586,29.0190476 L1.5,29.0190476 C1.0862069,29.0190476 0.74137931,28.8793651 0.465517241,28.6 C0.189655172,28.3206349 0.0517241379,27.9714286 0.0517241379,27.552381 L0.0517241379,21.1968254 C0.0517241379,20.7777778 0.189655172,20.4285714 0.465517241,20.1492063 C0.74137931,19.8698413 1.0862069,19.7301587 1.5,19.7301587 L2.25862069,19.7301587 C2.5862069,19.2936508 2.87931034,18.752381 3.13793103,18.1412698 C3.39655172,17.5126984 3.60344828,16.8492063 3.79310345,16.0984127 C3.96551724,15.3650794 4.12068966,14.5968254 4.24137931,13.8111111 C4.36206897,13.0253968 4.43103448,12.2396825 4.48275862,11.4714286 L4.63793103,9.18412698 C4.65517241,8.76507937 4.82758621,8.41587302 5.12068966,8.13650794 C5.4137931,7.85714286 5.75862069,7.71746032 6.17241379,7.71746032 L16.9310345,7.71746032 C17.3448276,7.71746032 17.6896552,7.85714286 17.9655172,8.13650794 C18.2413793,8.41587302 18.3793103,8.76507937 18.3793103,9.18412698 L18.3793103,19.7301587 L19.7931034,19.7301587 C20.2068966,19.7301587 20.5517241,19.8698413 20.8275862,20.1492063 C21.1034483,20.4285714 21.2413793,20.7777778 21.2413793,21.1968254 L21.2413793,27.552381 C21.2413793,27.9714286 21.1034483,28.3206349 20.8275862,28.6 C20.5517241,28.8793651 20.2068966,29.0190476 19.7931034,29.0190476 L17.3448276,29.0190476 C16.9310345,29.0190476 16.5862069,28.8793651 16.3103448,28.6 C16.0344828,28.3206349 15.8965517,27.9714286 15.8965517,27.552381 L15.8965517,25.1428571 L5.39655172,25.1428571 L5.39655172,27.552381 Z M12.637931,13.1301587 L10.0689655,13.1301587 L10,13.8285714 C9.82758621,15.2952381 9.5862069,16.5174603 9.27586207,17.4777778 C8.96551724,18.4380952 8.63793103,19.1888889 8.27586207,19.7301587 L12.637931,19.7301587 L12.637931,13.1301587 Z" id="Shape" fill-rule="nonzero"></path>
                            <path d="M28.7241379,18.3507937 C29,19.1714286 29.5172414,19.7825397 30.2413793,20.1666667 C30.9655172,20.5507937 31.8103448,20.7428571 32.7586207,20.7428571 C33.3965517,20.7428571 33.9655172,20.7079365 34.4482759,20.6206349 C34.9310345,20.5507937 35.4137931,20.4111111 35.862069,20.2365079 C36.137931,20.131746 36.4310345,20.0793651 36.7068966,20.0793651 C37.3275862,20.0793651 37.7586207,20.3587302 38.0517241,20.9 L38.6724138,22.1396825 C38.7758621,22.3492063 38.8275862,22.5761905 38.8275862,22.8380952 C38.8275862,23.4142857 38.6034483,23.8333333 38.137931,24.1126984 C37.0344828,24.7412698 36.0344828,25.1253968 35.1034483,25.3174603 C34.1896552,25.4920635 33.2068966,25.5968254 32.1551724,25.5968254 C30.7241379,25.5968254 29.4310345,25.3698413 28.2931034,24.9333333 C27.137931,24.4968254 26.1724138,23.868254 25.362069,23.0650794 C24.5517241,22.2619048 23.9310345,21.3015873 23.4827586,20.1492063 C23.0344828,19.0142857 22.8103448,17.7571429 22.8103448,16.3952381 C22.8103448,15.1206349 23.0344828,13.9333333 23.4827586,12.8333333 C23.9310345,11.715873 24.5517241,10.7380952 25.362069,9.9 C26.1724138,9.06190476 27.137931,8.3984127 28.2931034,7.92698413 C29.4482759,7.45555556 30.7241379,7.21111111 32.1551724,7.21111111 C33.2586207,7.21111111 34.3103448,7.4031746 35.3103448,7.78730159 C36.3103448,8.17142857 37.2068966,8.73015873 37.9655172,9.46349206 C38.7241379,10.1793651 39.3448276,11.052381 39.8103448,12.0650794 C40.2758621,13.0777778 40.5,14.1952381 40.5,15.4349206 C40.5,16.1333333 40.4655172,16.7095238 40.3793103,17.1809524 C40.3275862,17.4603175 40.1724138,17.7222222 39.8965517,17.984127 C39.6206897,18.2285714 39.362069,18.3507937 39.0689655,18.3507937 L28.7241379,18.3507937 Z M34.7413793,14.4746032 C34.7413793,13.8809524 34.5,13.3222222 34.0344828,12.8333333 C33.5689655,12.3269841 32.862069,12.0825397 31.9482759,12.0825397 C30.9827586,12.0825397 30.2413793,12.2920635 29.7241379,12.7111111 C29.2068966,13.1301587 28.8103448,13.7238095 28.5344828,14.4920635 L34.7413793,14.4920635 L34.7413793,14.4746032 Z" id="Shape" fill-rule="nonzero"></path>
                            <path d="M48.4482759,25.1428571 C48.0344828,25.1428571 47.6896552,25.0031746 47.4137931,24.7238095 C47.137931,24.4444444 47,24.0952381 47,23.6761905 L47,13.5142857 L43.4827586,13.5142857 C43.0689655,13.5142857 42.7241379,13.3746032 42.4482759,13.0952381 C42.1724138,12.815873 42.0344828,12.4666667 42.0344828,12.047619 L42.0344828,9.18412698 C42.0344828,8.76507937 42.1724138,8.41587302 42.4482759,8.13650794 C42.7241379,7.85714286 43.0689655,7.71746032 43.4827586,7.71746032 L56.2758621,7.71746032 C56.6896552,7.71746032 57.0344828,7.85714286 57.3103448,8.13650794 C57.5862069,8.41587302 57.7241379,8.76507937 57.7241379,9.18412698 L57.7241379,12.047619 C57.7241379,12.4666667 57.5862069,12.815873 57.3103448,13.0952381 C57.0344828,13.3746032 56.6896552,13.5142857 56.2758621,13.5142857 L52.7586207,13.5142857 L52.7586207,23.6761905 C52.7586207,24.0952381 52.6206897,24.4444444 52.3448276,24.7238095 C52.0689655,25.0031746 51.7241379,25.1428571 51.3103448,25.1428571 L48.4482759,25.1428571 Z" id="Path"></path>
                            <path d="M71.6724138,13.3571429 C70.7586207,12.8857143 69.8793103,12.6587302 69.0344828,12.6587302 C68.5689655,12.6587302 68.1206897,12.7285714 67.6896552,12.8857143 C67.2586207,13.0428571 66.862069,13.2873016 66.5,13.6015873 C66.137931,13.9333333 65.862069,14.3174603 65.637931,14.7888889 C65.4137931,15.2603175 65.3103448,15.8015873 65.3103448,16.4126984 C65.3103448,17.0063492 65.4310345,17.5301587 65.6551724,18.0015873 C65.8793103,18.4730159 66.1724138,18.8571429 66.5344828,19.1888889 C66.8965517,19.5206349 67.2931034,19.7650794 67.7413793,19.9222222 C68.1896552,20.0968254 68.637931,20.1666667 69.1034483,20.1666667 C70,20.1666667 70.8965517,19.8873016 71.7931034,19.3111111 C72.1206897,19.084127 72.4827586,18.9619048 72.862069,18.9619048 C73.3448276,18.9619048 73.7413793,19.1714286 74.0517241,19.5904762 L75.2413793,21.1793651 C75.4482759,21.4587302 75.5517241,21.7730159 75.5517241,22.1047619 C75.5517241,22.6285714 75.3448276,23.0301587 74.9310345,23.3444444 C73.7758621,24.2698413 72.6896552,24.8809524 71.6724138,25.1603175 C70.6551724,25.4396825 69.6724138,25.5793651 68.7586207,25.5793651 C67.3103448,25.5793651 65.9827586,25.352381 64.7931034,24.915873 C63.6034483,24.4793651 62.6034483,23.8507937 61.7586207,23.047619 C60.9310345,22.2444444 60.2931034,21.284127 59.8448276,20.131746 C59.3965517,18.9968254 59.1724138,17.7396825 59.1724138,16.3777778 C59.1724138,15.1031746 59.3965517,13.915873 59.8275862,12.815873 C60.2586207,11.6984127 60.8793103,10.7206349 61.6896552,9.88253968 C62.5,9.04444444 63.4655172,8.38095238 64.5862069,7.90952381 C65.7068966,7.43809524 66.9482759,7.19365079 68.2931034,7.19365079 C69.4482759,7.19365079 70.4827586,7.2984127 71.3965517,7.50793651 C72.3103448,7.71746032 73.2931034,8.15396825 74.3103448,8.83492063 C74.8793103,9.2015873 75.1551724,9.65555556 75.1551724,10.1968254 C75.1551724,10.4587302 75.0862069,10.7031746 74.9310345,10.9301587 L73.8275862,12.7984127 C73.5172414,13.3222222 73.0862069,13.5666667 72.5172414,13.5666667 C72.2068966,13.584127 71.9310345,13.5142857 71.6724138,13.3571429 Z" id="Path"></path>
                            <path d="M84.5344828,16.8142857 L84.5344828,23.6761905 C84.5344828,24.0952381 84.3965517,24.4444444 84.1206897,24.7238095 C83.8448276,25.0031746 83.5,25.1428571 83.0862069,25.1428571 L80.2586207,25.1428571 C79.8448276,25.1428571 79.5,25.0031746 79.2241379,24.7238095 C78.9482759,24.4444444 78.8103448,24.0952381 78.8103448,23.6761905 L78.8103448,9.16666667 C78.8103448,8.74761905 78.9482759,8.3984127 79.2241379,8.11904762 C79.5,7.83968254 79.8448276,7.7 80.2586207,7.7 L83.0862069,7.7 C83.5,7.7 83.8448276,7.83968254 84.1206897,8.11904762 C84.3965517,8.3984127 84.5344828,8.74761905 84.5344828,9.16666667 L84.5344828,15.2952381 L88.9827586,8.66031746 C89.1896552,8.38095238 89.4482759,8.13650794 89.7758621,7.96190476 C90.1034483,7.78730159 90.4310345,7.68253968 90.7931034,7.68253968 L93.4827586,7.68253968 C93.9137931,7.68253968 94.2758621,7.83968254 94.5517241,8.15396825 C94.8275862,8.46825397 94.9655172,8.81746032 94.9655172,9.2015873 C94.9655172,9.51587302 94.862069,9.81269841 94.6551724,10.0920635 L90.6034483,15.5222222 L92.4827586,18.1238095 C93.1896552,19.084127 93.8793103,19.6428571 94.5517241,19.8 C95.137931,19.9222222 95.5344828,20.131746 95.7241379,20.3761905 C95.9137931,20.6380952 96.0172414,21.0571429 96.0172414,21.6507937 L96.0172414,24.0253968 C96.0172414,24.3396825 95.8965517,24.6190476 95.6724138,24.8809524 C95.4482759,25.1428571 95.1724138,25.3 94.862069,25.352381 C94.6551724,25.3698413 94.4655172,25.4047619 94.2931034,25.4047619 C94.1206897,25.4222222 93.9310345,25.4222222 93.7241379,25.4222222 C93.2586207,25.4222222 92.7931034,25.3698413 92.2931034,25.2650794 C91.7931034,25.1603175 91.2931034,24.968254 90.7931034,24.7063492 C90.2931034,24.4269841 89.7931034,24.0603175 89.2931034,23.5539683 C88.7931034,23.0650794 88.2931034,22.4365079 87.7758621,21.6507937 L84.5344828,16.8142857 Z" id="Path"></path>
                            <path d="M112.568966,25.1428571 C112.155172,25.1428571 111.810345,25.0031746 111.534483,24.7238095 C111.258621,24.4444444 111.12069,24.0952381 111.12069,23.6761905 L111.12069,16.0285714 L105.637931,24.1825397 C105.431034,24.4619048 105.189655,24.7063492 104.931034,24.8809524 C104.655172,25.0555556 104.344828,25.1603175 104,25.1603175 L100.706897,25.1603175 C100.293103,25.1603175 99.9482759,25.0206349 99.6724138,24.7412698 C99.3965517,24.4619048 99.2586207,24.1126984 99.2586207,23.6936508 L99.2586207,9.18412698 C99.2586207,8.76507937 99.3965517,8.41587302 99.6724138,8.13650794 C99.9482759,7.85714286 100.293103,7.71746032 100.706897,7.71746032 L103.534483,7.71746032 C103.948276,7.71746032 104.293103,7.85714286 104.568966,8.13650794 C104.844828,8.41587302 104.982759,8.76507937 104.982759,9.18412698 L104.982759,16.831746 L110.465517,8.67777778 C110.672414,8.3984127 110.896552,8.15396825 111.155172,7.97936508 C111.413793,7.8047619 111.724138,7.7 112.068966,7.7 L115.396552,7.7 C115.810345,7.7 116.155172,7.83968254 116.431034,8.11904762 C116.706897,8.3984127 116.844828,8.74761905 116.844828,9.16666667 L116.844828,23.6761905 C116.844828,24.0952381 116.706897,24.4444444 116.431034,24.7238095 C116.155172,25.0031746 115.810345,25.1428571 115.396552,25.1428571 L112.568966,25.1428571 Z" id="Path"></path>
                            <path d="M134.413793,25.1428571 C134,25.1428571 133.655172,25.0031746 133.37931,24.7238095 C133.103448,24.4444444 132.965517,24.0952381 132.965517,23.6761905 L132.965517,16.0285714 L127.482759,24.1825397 C127.275862,24.4619048 127.034483,24.7063492 126.775862,24.8809524 C126.5,25.0555556 126.189655,25.1603175 125.844828,25.1603175 L122.551724,25.1603175 C122.137931,25.1603175 121.793103,25.0206349 121.517241,24.7412698 C121.241379,24.4619048 121.103448,24.1126984 121.103448,23.6936508 L121.103448,9.18412698 C121.103448,8.76507937 121.241379,8.41587302 121.517241,8.13650794 C121.793103,7.85714286 122.137931,7.71746032 122.551724,7.71746032 L125.37931,7.71746032 C125.793103,7.71746032 126.137931,7.85714286 126.413793,8.13650794 C126.689655,8.41587302 126.827586,8.76507937 126.827586,9.18412698 L126.827586,16.831746 L132.310345,8.67777778 C132.517241,8.3984127 132.741379,8.15396825 133,7.97936508 C133.258621,7.8047619 133.568966,7.7 133.913793,7.7 L137.241379,7.7 C137.655172,7.7 138,7.83968254 138.275862,8.11904762 C138.551724,8.3984127 138.689655,8.74761905 138.689655,9.16666667 L138.689655,23.6761905 C138.689655,24.0952381 138.551724,24.4444444 138.275862,24.7238095 C138,25.0031746 137.655172,25.1428571 137.241379,25.1428571 L134.413793,25.1428571 Z M133.568966,0.0523809524 C134.327586,0.0523809524 134.913793,0.279365079 135.310345,0.715873016 C135.706897,1.15238095 135.896552,1.72857143 135.896552,2.42698413 C135.896552,3.43968254 135.396552,4.2952381 134.413793,4.99365079 C133.431034,5.69206349 131.965517,6.04126984 130.034483,6.04126984 C127.896552,6.04126984 126.344828,5.69206349 125.413793,4.99365079 C124.482759,4.2952381 124.017241,3.43968254 124.017241,2.42698413 C124.017241,1.72857143 124.206897,1.15238095 124.586207,0.715873016 C124.965517,0.279365079 125.551724,0.0523809524 126.310345,0.0523809524 C126.965517,0.0523809524 127.465517,0.192063492 127.758621,0.471428571 C128.068966,0.750793651 128.275862,1.1 128.413793,1.51904762 C128.534483,1.86825397 128.724138,2.16507937 128.948276,2.39206349 C129.172414,2.61904762 129.534483,2.72380952 130.017241,2.72380952 C130.448276,2.72380952 130.775862,2.61904762 130.982759,2.39206349 C131.189655,2.16507937 131.344828,1.86825397 131.482759,1.51904762 C131.603448,1.1 131.827586,0.733333333 132.137931,0.471428571 C132.448276,0.192063492 132.931034,0.0523809524 133.568966,0.0523809524 Z" id="Shape" fill-rule="nonzero"></path>
                            <path d="M156.327586,23.6761905 C156.327586,24.0952381 156.189655,24.4444444 155.913793,24.7238095 C155.637931,25.0031746 155.293103,25.1428571 154.87931,25.1428571 L152.051724,25.1428571 C151.637931,25.1428571 151.293103,25.0031746 151.017241,24.7238095 C150.741379,24.4444444 150.603448,24.0952381 150.603448,23.6761905 L150.603448,9.16666667 C150.603448,8.74761905 150.741379,8.3984127 151.017241,8.11904762 C151.293103,7.83968254 151.637931,7.7 152.051724,7.7 L154.775862,7.7 C155.431034,7.7 156.034483,7.9968254 156.534483,8.59047619 L160.931034,13.6365079 L164.982759,8.62539683 C165.206897,8.34603175 165.465517,8.11904762 165.741379,7.94444444 C166.017241,7.76984127 166.344828,7.7 166.706897,7.7 L169.275862,7.7 C169.689655,7.7 170.034483,7.83968254 170.310345,8.11904762 C170.586207,8.3984127 170.724138,8.74761905 170.724138,9.16666667 L170.724138,23.6761905 C170.724138,24.0952381 170.586207,24.4444444 170.310345,24.7238095 C170.034483,25.0031746 169.689655,25.1428571 169.275862,25.1428571 L166.448276,25.1428571 C166.034483,25.1428571 165.689655,25.0031746 165.413793,24.7238095 C165.137931,24.4444444 165,24.0952381 165,23.6761905 L165,16.5698413 L161.724138,20.3063492 C161.448276,20.6206349 161.103448,20.7777778 160.724138,20.7777778 C160.344828,20.7777778 160.017241,20.6380952 159.724138,20.3587302 L156.310345,16.6047619 L156.310345,23.6761905 L156.327586,23.6761905 Z" id="Path"></path>
                            <path d="M188.258621,25.1428571 C187.844828,25.1428571 187.5,25.0031746 187.224138,24.7238095 C186.948276,24.4444444 186.810345,24.0952381 186.810345,23.6761905 L186.810345,16.0285714 L181.327586,24.1825397 C181.12069,24.4619048 180.87931,24.7063492 180.62069,24.8809524 C180.344828,25.0555556 180.034483,25.1603175 179.689655,25.1603175 L176.396552,25.1603175 C175.982759,25.1603175 175.637931,25.0206349 175.362069,24.7412698 C175.086207,24.4619048 174.948276,24.1126984 174.948276,23.6936508 L174.948276,9.18412698 C174.948276,8.76507937 175.086207,8.41587302 175.362069,8.13650794 C175.637931,7.85714286 175.982759,7.71746032 176.396552,7.71746032 L179.224138,7.71746032 C179.637931,7.71746032 179.982759,7.85714286 180.258621,8.13650794 C180.534483,8.41587302 180.672414,8.76507937 180.672414,9.18412698 L180.672414,16.831746 L186.155172,8.67777778 C186.362069,8.3984127 186.586207,8.15396825 186.844828,7.97936508 C187.103448,7.8047619 187.413793,7.7 187.758621,7.7 L191.086207,7.7 C191.5,7.7 191.844828,7.83968254 192.12069,8.11904762 C192.396552,8.3984127 192.534483,8.74761905 192.534483,9.16666667 L192.534483,23.6761905 C192.534483,24.0952381 192.396552,24.4444444 192.12069,24.7238095 C191.844828,25.0031746 191.5,25.1428571 191.086207,25.1428571 L188.258621,25.1428571 Z" id="Path"></path>
                            <path d="M202.517241,31.4285714 C202.517241,31.847619 202.37931,32.1968254 202.103448,32.4761905 C201.827586,32.7555556 201.482759,32.8952381 201.068966,32.8952381 L198.241379,32.8952381 C197.827586,32.8952381 197.482759,32.7555556 197.206897,32.4761905 C196.931034,32.1968254 196.793103,31.847619 196.793103,31.4285714 L196.793103,9.16666667 C196.793103,8.74761905 196.931034,8.3984127 197.206897,8.11904762 C197.482759,7.83968254 197.827586,7.7 198.241379,7.7 L201.275862,7.7 C201.637931,7.7 201.931034,7.82222222 202.172414,8.06666667 C202.413793,8.31111111 202.534483,8.60793651 202.534483,8.97460317 C203.017241,8.5031746 203.672414,8.1015873 204.482759,7.75238095 C205.293103,7.4031746 206.241379,7.22857143 207.310345,7.22857143 C208.465517,7.22857143 209.517241,7.45555556 210.465517,7.89206349 C211.431034,8.32857143 212.241379,8.95714286 212.896552,9.76031746 C213.551724,10.5634921 214.068966,11.5063492 214.448276,12.5888889 C214.810345,13.6714286 215,14.8587302 215,16.1507937 C215,17.4777778 214.775862,18.7 214.327586,19.852381 C213.87931,21.0047619 213.258621,22 212.448276,22.8555556 C211.637931,23.7111111 210.672414,24.3746032 209.534483,24.8809524 C208.396552,25.3698413 207.12069,25.6142857 205.724138,25.6142857 C205.137931,25.6142857 204.551724,25.5619048 203.982759,25.4746032 C203.413793,25.3873016 202.913793,25.247619 202.5,25.0730159 L202.5,31.4285714 L202.517241,31.4285714 Z M202.517241,19.5206349 C202.948276,19.7825397 203.362069,19.9571429 203.724138,20.0444444 C204.086207,20.131746 204.586207,20.184127 205.206897,20.184127 C206.465517,20.184127 207.37931,19.8 207.982759,19.031746 C208.586207,18.2634921 208.87931,17.3380952 208.87931,16.2555556 C208.87931,15.2428571 208.586207,14.3873016 208.017241,13.6888889 C207.448276,12.9904762 206.603448,12.6412698 205.5,12.6412698 C204.431034,12.6412698 203.431034,13.1650794 202.517241,14.1952381 L202.517241,19.5206349 Z" id="Shape" fill-rule="nonzero"></path>
                        </g>
                        <g id="Logo-/-Cubes" transform="translate(0.000000, 5.000000)">
                            <path d="M106.07659,15.6242879 C105.023147,18.5120226 103.952092,20.6208908 103.123612,22.0346517 C102.271405,23.485951 100.607039,24.2477479 98.9738755,23.9276428 C97.4106103,23.6227108 95.1672493,23.0606317 92.2836383,22.0303237 C89.4041853,20.9995104 87.316691,20.0106603 85.918851,19.2583553 C84.4556365,18.4704641 83.6676102,16.8317771 83.9494939,15.1759209 C84.2237593,13.5624075 84.7624257,11.2646586 85.8158686,8.37692393 C86.871164,5.486851 87.9406926,3.37943626 88.7700487,1.96599143 C89.6222561,0.514692172 91.2857454,-0.247420846 92.9201107,0.0721156357 C94.4812969,0.37730018 96.7237809,0.939063232 99.6050864,1.9675383 C102.487722,3.00050061 104.575541,3.98846592 105.975687,4.74260388 C107.437148,5.52986296 108.2254,7.17063553 107.94329,8.82440617 C107.66935,10.4370349 107.131235,12.7359845 106.07659,15.6242879 Z" id="Cube" fill="#00C2FC"></path>
                            <path d="M78.0799355,8.33403914 C79.145886,11.2121672 79.6935147,13.505784 79.9761454,15.1135952 C80.264957,16.7651969 79.4855822,18.4055877 78.0288048,19.1986712 C76.6353309,19.9589381 74.5549382,20.9547456 71.6812868,21.9993281 C68.8104887,23.0408815 66.5727004,23.6112228 65.0157887,23.9241915 C63.3858024,24.2514895 61.7208301,23.4989718 60.8631581,22.053371 C60.0271043,20.6449971 58.9497942,18.545263 57.8838437,15.6671349 C56.8177947,12.7860412 56.2699398,10.4945068 55.9881848,8.88637995 C55.6993732,7.23477827 56.4778723,5.59470299 57.9352007,4.80042057 C59.3272479,4.04166819 61.406765,3.04617628 64.2774646,2.00165713 C67.1520901,0.959724737 69.3895537,0.388500156 70.9494171,0.075468097 C72.5776521,-0.251198786 74.2441495,0.502770063 75.1002964,1.94691972 C75.9360254,3.35441029 77.014536,5.45471218 78.0799355,8.33403914 Z" id="Cube" fill="#06C92E"></path>
                            <path d="M50.1480189,15.6242879 C49.094576,18.5120226 48.0235201,20.6208908 47.1950409,22.0346517 C46.3428335,23.485951 44.6784673,24.2477479 43.0453041,23.9276428 C41.4820389,23.6227108 39.2386779,23.0606317 36.3550669,22.0303237 C33.4756139,20.9995104 31.3881196,20.0106603 29.9902795,19.2583553 C28.5270651,18.4704641 27.7390388,16.8317771 28.0209225,15.1759209 C28.2951878,13.5624075 28.8338543,11.2646586 29.8872972,8.37692393 C30.9425926,5.486851 32.0121212,3.37943626 32.8414773,1.96599143 C33.6936846,0.514692172 35.357174,-0.247420846 36.9915393,0.0721156357 C38.5527254,0.37730018 40.7952095,0.939063232 43.676515,1.9675383 C46.5591505,3.00050061 48.64697,3.98846592 50.0471156,4.74260388 C51.5085762,5.52986296 52.296829,7.17063553 52.0147188,8.82440617 C51.7407786,10.4370349 51.2026639,12.7359845 50.1480189,15.6242879 Z" id="Cube" fill="#FABC22"></path>
                            <path d="M22.1513641,8.33403914 C23.2173146,11.2121672 23.7649432,13.505784 24.0475739,15.1135952 C24.3363856,16.7651969 23.5570108,18.4055877 22.1002333,19.1986712 C20.7067595,19.9589381 18.6263667,20.9547456 15.7527154,21.9993281 C12.8819173,23.0408815 10.6441289,23.6112228 9.08721727,23.9241915 C7.45723097,24.2514895 5.79225862,23.4989718 4.93458666,22.053371 C4.0985329,20.6449971 3.02122276,18.545263 1.95527228,15.6671349 C0.889223267,12.7860412 0.341368374,10.4945068 0.0596133354,8.88637995 C-0.229198268,7.23477827 0.549300857,5.59470299 2.00662922,4.80042057 C3.39867647,4.04166819 5.47819353,3.04617628 8.34889314,2.00165713 C11.2235187,0.959724737 13.4609823,0.388500156 15.0208457,0.075468097 C16.6490807,-0.251198786 18.3155781,0.502770063 19.171725,1.94691972 C20.007454,3.35441029 21.0859645,5.45471218 22.1513641,8.33403914 Z" id="Cube" fill="#F72A16"></path>
                        </g>
                    </g>
                </g>
            </g>
        </g>
    </g>
</svg>
