<svg width="15" height="15" viewBox="0 0 15 15" fill="none" xmlns="http://www.w3.org/2000/svg">
<g clip-path="url(#clip0_41_562)">
<path d="M14.3721 11.7473L10.1249 7.50004L14.3721 3.25279C14.4535 3.17041 14.4991 3.05927 14.4991 2.94347C14.4991 2.82767 14.4535 2.71654 14.3721 2.63416L12.3657 0.627786C12.3252 0.58707 12.277 0.554764 12.2239 0.53272C12.1708 0.510676 12.1139 0.499329 12.0564 0.499329C11.9989 0.499329 11.942 0.510676 11.889 0.53272C11.8359 0.554764 11.7877 0.58707 11.7471 0.627786L7.49985 4.87504L3.2526 0.627786C3.17056 0.545768 3.0593 0.499692 2.94329 0.499692C2.82728 0.499692 2.71602 0.545768 2.63398 0.627786L0.627603 2.63416C0.586887 2.67473 0.554581 2.72293 0.532537 2.77601C0.510493 2.82909 0.499146 2.886 0.499146 2.94347C0.499146 3.00095 0.510493 3.05786 0.532537 3.11094C0.554581 3.16402 0.586887 3.21222 0.627603 3.25279L4.87485 7.50004L0.627603 11.7473C0.545584 11.8293 0.499509 11.9406 0.499509 12.0566C0.499509 12.1726 0.545584 12.2839 0.627603 12.3659L2.63398 14.3723C2.67454 14.413 2.72275 14.4453 2.77583 14.4674C2.82891 14.4894 2.88582 14.5007 2.94329 14.5007C3.00077 14.5007 3.05767 14.4894 3.11075 14.4674C3.16383 14.4453 3.21204 14.413 3.2526 14.3723L7.49985 10.125L11.7471 14.3723C11.8291 14.4543 11.9404 14.5004 12.0564 14.5004C12.1724 14.5004 12.2837 14.4543 12.3657 14.3723L14.3721 12.3659C14.4128 12.3253 14.4451 12.2771 14.4672 12.2241C14.4892 12.171 14.5006 12.1141 14.5006 12.0566C14.5006 11.9991 14.4892 11.9422 14.4672 11.8891C14.4451 11.8361 14.4128 11.7879 14.3721 11.7473Z" fill="#F24E1E"/>
</g>
<defs>
<clipPath id="clip0_41_562">
<rect width="14" height="14" fill="white" transform="translate(0.5 0.5)"/>
</clipPath>
</defs>
</svg>
