<!DOCTYPE svg PUBLIC "-//W3C//DTD SVG 1.1//EN" "http://www.w3.org/Graphics/SVG/1.1/DTD/svg11.dtd">
<!-- Uploaded to: SVG Repo, www.svgrepo.com, Transformed by: SVG Repo Mixer Tools -->
<svg fill="#0068E2" version="1.1" id="Capa_1" xmlns="http://www.w3.org/2000/svg" xmlns:xlink="http://www.w3.org/1999/xlink" width="64px" height="64px" viewBox="0 0 796.538 796.538" xml:space="preserve" stroke="#0068E2" stroke-width="11.94807">
<g id="SVGRepo_bgCarrier" stroke-width="0"/>
<g id="SVGRepo_tracerCarrier" stroke-linecap="round" stroke-linejoin="round"/>
<g id="SVGRepo_iconCarrier"> <g> <g> <path d="M667.807,569.131h-538.81c-26.48,0-48.023-21.541-48.023-48.019V139.878c0-26.479,21.543-48.022,48.023-48.022h538.809 c26.478,0,48.019,21.543,48.019,48.022l0.001,381.234C715.826,547.59,694.285,569.131,667.807,569.131z M128.998,111.651 c-15.565,0-28.229,12.663-28.229,28.228v381.234c0,15.562,12.663,28.224,28.229,28.224h538.81 c15.562,0,28.224-12.66,28.224-28.224l-0.001-381.234c0-15.565-12.661-28.228-28.224-28.228H128.998z"/> </g> <g> <path d="M474.022,76.358H322.78v-9.897c0-21.015,17.098-38.112,38.114-38.112h8.911V0h58.82v28.349h7.287 c10.148,0,19.711,3.975,26.926,11.192c7.213,7.215,11.186,16.775,11.185,26.92L474.022,76.358z M345.485,56.563h105.81 c-0.7-1.079-1.521-2.094-2.457-3.028c-3.476-3.477-8.064-5.392-12.926-5.392h-27.082V19.795h-19.23v28.349h-28.706 C354.438,48.143,348.749,51.501,345.485,56.563z"/> </g> <g> <path d="M661.299,796.538h-81.284l-36.879-147.964H260.235l-36.879,147.964h-81.283l39.546-147.963H73.663 c-34.902,0.346-39.512-32.238-38.114-57.906h725.489c0.906,21.07-0.594,57.905-37.896,57.905H621.749L661.299,796.538z M595.482,776.743h40.036l-39.551-147.964h127.174c13.633-0.462,15.86-13.912,15.853-18.315H57.592 c-0.255,7.899,4.962,18.316,16.07,18.316h133.737l-39.546,147.963h40.037l36.879-147.964h313.833L595.482,776.743z"/> </g> <g> <path d="M419.985,472.271L306.667,344.708l-74.375,70.487l-48.597-52.005l126.969-120.275L427.465,372.28l91.903-86.41 l-8.139-8.655c-5.207-5.542-6.686-12.619-3.954-18.931c2.684-6.205,8.96-10.373,15.617-10.373c0.479,0,0.958,0.022,1.434,0.066 l54.686,0.053l0.281-0.002c14.543,0,26.487,11.833,26.625,26.377l0.002,0.184l-0.005,0.184l-1.619,58.483 c0.245,3.613-1.086,7.438-3.771,10.714c-3.39,4.134-8.134,6.505-13.016,6.505c0,0-0.001,0-0.002,0 c-4.433-0.001-8.59-1.958-11.755-5.521l-10.061-10.177L419.985,472.271z M307.888,316.278l113.349,127.596l144.938-136.768 l18.524,18.739l1.424-51.398c-0.111-3.667-3.146-6.625-6.829-6.625L579,267.824l-49.474-0.048l17.822,18.956L426.308,400.538 l-116.75-129.309l-97.977,92.811l21.563,23.075L307.888,316.278z"/> </g> </g> </g>
</svg>